<?xml version="1.0" standalone="no"?>
<!DOCTYPE svg PUBLIC "-//W3C//DTD SVG 20010904//EN"
 "http://www.w3.org/TR/2001/REC-SVG-20010904/DTD/svg10.dtd">
<svg version="1.0" xmlns="http://www.w3.org/2000/svg"
 width="417.000000pt" height="417.000000pt" viewBox="0 0 417.000000 417.000000"
 preserveAspectRatio="xMidYMid meet">
<metadata>
Created by potrace 1.11, written by Peter Selinger 2001-2013
</metadata>
<g transform="translate(0.000000,417.000000) scale(0.100000,-0.100000)"
fill="#000000" stroke="none">
<path d="M1633 3902 c-45 -36 -124 -143 -151 -202 -10 -24 -11 -23 -11 13 -1
21 4 58 10 82 17 69 6 74 -29 13 -24 -41 -32 -68 -32 -102 l0 -47 -26 20 c-48
37 -62 18 -19 -24 13 -14 23 -25 22 -26 -1 0 -10 -2 -20 -4 -33 -6 -147 -59
-147 -68 0 -5 6 -5 13 1 14 11 118 35 124 28 3 -2 -9 -7 -26 -11 -17 -4 -31
-10 -31 -15 0 -4 -15 -15 -32 -24 -53 -26 -170 -148 -156 -162 3 -2 27 12 54
32 l49 37 -61 -64 c-87 -91 -176 -215 -229 -320 -25 -50 -45 -97 -45 -104 0
-7 -16 -36 -35 -64 -35 -50 -44 -81 -25 -81 5 0 -2 -21 -15 -46 -14 -26 -25
-53 -25 -60 0 -9 -10 -12 -31 -10 -17 2 -33 -2 -35 -8 -7 -18 -10 -466 -3
-477 3 -5 26 -10 52 -12 l47 -2 0 -87 c0 -52 4 -88 10 -88 6 0 10 -7 10 -15 0
-8 7 -15 15 -15 8 0 15 4 15 9 0 5 20 5 46 0 28 -5 53 -5 64 1 16 9 18 2 26
-68 4 -42 8 -80 10 -84 1 -5 2 -23 4 -40 l2 -33 10 35 c6 19 16 62 22 95 l13
60 22 -60 c35 -93 33 -167 -6 -244 -22 -42 -28 -61 -18 -57 12 4 15 -4 16 -37
0 -23 2 -50 4 -59 2 -10 -1 -20 -6 -24 -5 -3 -9 -10 -9 -15 0 -6 5 -7 10 -4 5
3 10 -4 11 -17 0 -13 4 -50 8 -83 9 -68 -2 -102 -42 -128 -59 -38 -84 -163
-54 -264 23 -77 118 -131 196 -111 60 15 71 7 71 -52 0 -37 4 -50 15 -50 25 0
37 -41 39 -129 1 -53 6 -91 14 -99 15 -16 17 -66 2 -57 -6 4 -8 15 -5 25 3 10
2 21 -3 23 -4 3 -8 -8 -7 -25 0 -27 -5 -33 -34 -43 -19 -6 -37 -17 -39 -24 -3
-10 31 -11 169 -6 215 9 328 9 584 1 442 -13 845 -17 845 -7 0 11 -89 47 -107
43 -7 -2 -13 2 -13 8 0 6 4 9 9 6 5 -3 12 6 15 19 4 14 11 23 16 20 5 -3 12 0
16 6 5 8 3 9 -5 4 -9 -5 -11 1 -8 24 3 18 1 29 -4 25 -5 -3 -6 -11 -3 -17 5
-8 4 -9 -4 -2 -6 6 -13 52 -16 103 l-6 92 30 -15 c46 -24 120 -19 160 10 69
51 100 129 76 192 -8 21 -17 63 -21 93 -10 88 -60 222 -136 367 -39 74 -68
137 -65 140 3 3 22 -7 42 -23 20 -16 48 -38 61 -48 l25 -19 -7 24 c-4 13 -14
31 -21 40 -8 9 -25 44 -39 79 l-25 63 55 -61 c86 -95 173 -139 108 -55 -40 52
-63 108 -72 178 -10 74 -6 119 12 145 13 19 15 17 20 -29 3 -27 15 -67 26 -88
l20 -38 1 40 c2 61 10 127 20 160 5 17 11 48 15 70 l6 40 74 -2 c53 -1 77 2
86 13 7 8 11 46 10 99 -2 92 -4 88 60 85 21 -1 39 2 42 7 3 4 8 117 12 251 l6
242 -36 0 c-30 0 -37 4 -45 28 -6 15 -16 38 -24 52 -10 18 -11 29 -3 42 9 13
5 25 -16 55 -15 22 -34 65 -42 97 -16 59 -81 171 -127 216 -14 14 -49 43 -76
65 -28 22 -51 44 -52 48 0 5 14 -3 31 -18 39 -32 109 -69 117 -60 13 13 -75
157 -138 224 -14 14 -38 36 -55 49 -19 14 -23 20 -10 15 48 -16 -20 37 -140
108 -129 77 -135 87 -52 88 46 1 48 13 5 28 -197 69 -324 90 -437 73 -56 -8
-37 13 54 59 47 23 85 45 83 46 -2 2 -57 -8 -123 -21 -110 -24 -265 -84 -265
-104 0 -8 -84 -55 -118 -65 -22 -6 -23 -5 -11 17 7 12 37 49 67 81 63 66 51
76 -35 28 -29 -16 -53 -25 -53 -20 0 5 7 12 15 15 28 11 15 24 -22 24 -51 0
-116 -34 -149 -78 -16 -20 -34 -43 -40 -50 -7 -6 -15 -21 -19 -31 -5 -18 -33
-36 -41 -28 -11 11 43 147 66 167 13 11 62 80 57 80 -3 0 -27 -17 -54 -38z"/>
<path d="M2760 492 c0 -5 7 -15 15 -22 8 -7 15 -9 15 -6 0 4 -7 14 -15 22 -8
9 -15 11 -15 6z"/>
</g>
</svg>
